<mxfile host="app.diagrams.net" modified="2021-05-19T15:02:00.069Z" agent="5.0 (Macintosh)" etag="PbO7TEARSTBUvYRjlMGR" version="14.6.11" type="github">
  <diagram name="Page-1" id="c4acf3e9-155e-7222-9cf6-157b1a14988f">
    <mxGraphModel dx="2171" dy="1806" grid="1" gridSize="10" guides="1" tooltips="1" connect="1" arrows="1" fold="1" page="1" pageScale="1" pageWidth="850" pageHeight="1100" background="#ffffff" math="0" shadow="0">
      <root>
        <mxCell id="0" />
        <mxCell id="1" parent="0" />
        <mxCell id="a-3xQabaQIuShYP5bTJc-125" value="&lt;font style=&quot;font-size: 14px&quot;&gt;*&lt;/font&gt;" style="edgeLabel;resizable=0;html=1;align=left;verticalAlign=bottom;" parent="1" connectable="0" vertex="1">
          <mxGeometry x="584" y="413" as="geometry">
            <mxPoint x="4" y="-15" as="offset" />
          </mxGeometry>
        </mxCell>
        <mxCell id="a-3xQabaQIuShYP5bTJc-124" value="&lt;font style=&quot;font-size: 14px&quot;&gt;*&lt;/font&gt;" style="edgeLabel;resizable=0;html=1;align=left;verticalAlign=bottom;" parent="1" connectable="0" vertex="1">
          <mxGeometry x="568" y="413" as="geometry">
            <mxPoint x="4" y="-15" as="offset" />
          </mxGeometry>
        </mxCell>
        <mxCell id="a-3xQabaQIuShYP5bTJc-123" value="&lt;font style=&quot;font-size: 14px&quot;&gt;*&lt;/font&gt;" style="edgeLabel;resizable=0;html=1;align=left;verticalAlign=bottom;" parent="1" connectable="0" vertex="1">
          <mxGeometry x="552" y="413" as="geometry">
            <mxPoint x="4" y="-15" as="offset" />
          </mxGeometry>
        </mxCell>
        <mxCell id="a-3xQabaQIuShYP5bTJc-112" value="&lt;font style=&quot;font-size: 10px&quot;&gt;1&lt;/font&gt;" style="edgeLabel;resizable=0;html=1;align=left;verticalAlign=bottom;" parent="1" connectable="0" vertex="1">
          <mxGeometry x="87.5" y="217" as="geometry">
            <mxPoint x="4" y="-15" as="offset" />
          </mxGeometry>
        </mxCell>
        <mxCell id="a-3xQabaQIuShYP5bTJc-108" value="&lt;font style=&quot;font-size: 14px&quot;&gt;*&lt;/font&gt;" style="edgeLabel;resizable=0;html=1;align=left;verticalAlign=bottom;" parent="1" connectable="0" vertex="1">
          <mxGeometry x="456" y="222" as="geometry">
            <mxPoint x="4" y="-15" as="offset" />
          </mxGeometry>
        </mxCell>
        <mxCell id="a-3xQabaQIuShYP5bTJc-105" value="&lt;font style=&quot;font-size: 14px&quot;&gt;*&lt;/font&gt;" style="edgeLabel;resizable=0;html=1;align=left;verticalAlign=bottom;" parent="1" connectable="0" vertex="1">
          <mxGeometry x="-3" y="222" as="geometry">
            <mxPoint x="4" y="-15" as="offset" />
          </mxGeometry>
        </mxCell>
        <mxCell id="a-3xQabaQIuShYP5bTJc-51" value="&lt;font style=&quot;font-size: 14px&quot;&gt;*&lt;/font&gt;" style="edgeLabel;resizable=0;html=1;align=left;verticalAlign=bottom;" parent="1" connectable="0" vertex="1">
          <mxGeometry x="437.5" y="257" as="geometry">
            <mxPoint x="4" y="-15" as="offset" />
          </mxGeometry>
        </mxCell>
        <mxCell id="a-3xQabaQIuShYP5bTJc-92" value="&lt;font style=&quot;font-size: 14px&quot;&gt;*&lt;/font&gt;" style="edgeLabel;resizable=0;html=1;align=left;verticalAlign=bottom;" parent="1" connectable="0" vertex="1">
          <mxGeometry x="302" y="420" width="126" as="geometry">
            <mxPoint x="4" y="-15" as="offset" />
          </mxGeometry>
        </mxCell>
        <mxCell id="a-3xQabaQIuShYP5bTJc-44" value="&lt;font style=&quot;font-size: 14px&quot;&gt;*&lt;/font&gt;" style="edgeLabel;resizable=0;html=1;align=left;verticalAlign=bottom;" parent="1" connectable="0" vertex="1">
          <mxGeometry x="-34" y="235" as="geometry">
            <mxPoint x="4" y="-15" as="offset" />
          </mxGeometry>
        </mxCell>
        <mxCell id="17acba5748e5396b-1" value="&lt;b&gt;&lt;font style=&quot;font-size: 12px&quot;&gt;Metamodel&lt;/font&gt;&lt;/b&gt;" style="shape=umlFrame;whiteSpace=wrap;html=1;rounded=0;shadow=0;comic=0;labelBackgroundColor=none;strokeWidth=1;fontFamily=Verdana;fontSize=10;align=center;width=90;height=30;" parent="1" vertex="1">
          <mxGeometry x="-190" y="-220" width="1080" height="900" as="geometry" />
        </mxCell>
        <mxCell id="EUPt2hbITshMY0ZR5973-1" value="&lt;font style=&quot;font-size: 12px&quot;&gt;&lt;b&gt;ModelingElement&lt;/b&gt;&lt;/font&gt;" style="swimlane;html=1;fontStyle=0;childLayout=stackLayout;horizontal=1;startSize=26;fillColor=#f5f5f5;horizontalStack=0;resizeParent=1;resizeLast=0;collapsible=1;marginBottom=0;swimlaneFillColor=#ffffff;rounded=0;shadow=0;comic=0;labelBackgroundColor=none;strokeWidth=1;fontFamily=Verdana;fontSize=10;align=center;strokeColor=#666666;fontColor=#333333;" parent="1" vertex="1">
          <mxGeometry x="211" y="-179" width="126" height="70" as="geometry" />
        </mxCell>
        <mxCell id="EUPt2hbITshMY0ZR5973-5" value="&lt;font style=&quot;font-size: 12px&quot;&gt;&lt;b&gt;Type&lt;/b&gt;&lt;/font&gt;" style="swimlane;html=1;fontStyle=0;childLayout=stackLayout;horizontal=1;startSize=26;fillColor=#f5f5f5;horizontalStack=0;resizeParent=1;resizeLast=0;collapsible=1;marginBottom=0;swimlaneFillColor=#ffffff;rounded=0;shadow=0;comic=0;labelBackgroundColor=none;strokeWidth=1;fontFamily=Verdana;fontSize=10;align=center;strokeColor=#666666;fontColor=#333333;" parent="1" vertex="1">
          <mxGeometry x="44" y="-50" width="110" height="50" as="geometry" />
        </mxCell>
        <mxCell id="a-3xQabaQIuShYP5bTJc-20" style="edgeStyle=none;rounded=0;orthogonalLoop=1;jettySize=auto;html=1;exitX=0;exitY=0.25;exitDx=0;exitDy=0;entryX=1;entryY=0.25;entryDx=0;entryDy=0;endArrow=blockThin;endFill=1;endSize=8;" parent="1" source="a-3xQabaQIuShYP5bTJc-1" target="EUPt2hbITshMY0ZR5973-5" edge="1">
          <mxGeometry relative="1" as="geometry" />
        </mxCell>
        <mxCell id="a-3xQabaQIuShYP5bTJc-1" value="&lt;font style=&quot;font-size: 12px&quot;&gt;&lt;b&gt;Instance&lt;/b&gt;&lt;/font&gt;" style="swimlane;html=1;fontStyle=0;childLayout=stackLayout;horizontal=1;startSize=26;fillColor=#f5f5f5;horizontalStack=0;resizeParent=1;resizeLast=0;collapsible=1;marginBottom=0;swimlaneFillColor=#ffffff;rounded=0;shadow=0;comic=0;labelBackgroundColor=none;strokeWidth=1;fontFamily=Verdana;fontSize=10;align=center;strokeColor=#666666;fontColor=#333333;" parent="1" vertex="1">
          <mxGeometry x="445" y="-50" width="115" height="50" as="geometry" />
        </mxCell>
        <mxCell id="a-3xQabaQIuShYP5bTJc-2" value="&lt;div style=&quot;font-size: 12px&quot;&gt;&lt;font style=&quot;font-size: 12px&quot;&gt;&lt;b&gt;MultiInstance&lt;/b&gt;&lt;/font&gt;&lt;/div&gt;" style="swimlane;html=1;fontStyle=0;childLayout=stackLayout;horizontal=1;startSize=26;fillColor=#f5f5f5;horizontalStack=0;resizeParent=1;resizeLast=0;collapsible=1;marginBottom=0;swimlaneFillColor=#ffffff;rounded=0;shadow=0;comic=0;labelBackgroundColor=none;strokeWidth=1;fontFamily=Verdana;fontSize=10;align=center;strokeColor=#666666;fontColor=#333333;" parent="1" vertex="1">
          <mxGeometry x="626" y="11" width="110" height="50" as="geometry" />
        </mxCell>
        <mxCell id="a-3xQabaQIuShYP5bTJc-9" value="" style="endArrow=block;endSize=12;endFill=0;html=1;exitX=0.5;exitY=0;exitDx=0;exitDy=0;rounded=0;" parent="1" source="EUPt2hbITshMY0ZR5973-5" target="EUPt2hbITshMY0ZR5973-1" edge="1">
          <mxGeometry width="160" relative="1" as="geometry">
            <mxPoint x="94" y="10" as="sourcePoint" />
            <mxPoint x="274" y="-112" as="targetPoint" />
            <Array as="points">
              <mxPoint x="99" y="-80" />
              <mxPoint x="274" y="-80" />
            </Array>
          </mxGeometry>
        </mxCell>
        <mxCell id="a-3xQabaQIuShYP5bTJc-10" value="" style="endArrow=block;endSize=12;endFill=0;html=1;exitX=0.5;exitY=0;exitDx=0;exitDy=0;rounded=0;" parent="1" source="a-3xQabaQIuShYP5bTJc-1" target="EUPt2hbITshMY0ZR5973-1" edge="1">
          <mxGeometry width="160" relative="1" as="geometry">
            <mxPoint x="109" y="-50" as="sourcePoint" />
            <mxPoint x="274" y="-110" as="targetPoint" />
            <Array as="points">
              <mxPoint x="503" y="-80" />
              <mxPoint x="274" y="-80" />
            </Array>
          </mxGeometry>
        </mxCell>
        <mxCell id="a-3xQabaQIuShYP5bTJc-13" value="" style="endArrow=block;endSize=12;endFill=0;html=1;rounded=0;" parent="1" source="a-3xQabaQIuShYP5bTJc-2" target="EUPt2hbITshMY0ZR5973-1" edge="1">
          <mxGeometry width="160" relative="1" as="geometry">
            <mxPoint x="414" y="-130" as="sourcePoint" />
            <mxPoint x="574" y="-130" as="targetPoint" />
            <Array as="points">
              <mxPoint x="681" y="-80" />
              <mxPoint x="274" y="-80" />
            </Array>
          </mxGeometry>
        </mxCell>
        <mxCell id="a-3xQabaQIuShYP5bTJc-24" value="type" style="edgeLabel;resizable=0;html=1;align=left;verticalAlign=bottom;" parent="1" connectable="0" vertex="1">
          <mxGeometry x="398" y="-40" as="geometry" />
        </mxCell>
        <mxCell id="a-3xQabaQIuShYP5bTJc-25" style="edgeStyle=none;rounded=0;orthogonalLoop=1;jettySize=auto;html=1;exitX=0;exitY=0.25;exitDx=0;exitDy=0;endArrow=blockThin;endFill=1;endSize=8;entryX=1;entryY=0.75;entryDx=0;entryDy=0;" parent="1" source="a-3xQabaQIuShYP5bTJc-2" target="EUPt2hbITshMY0ZR5973-5" edge="1">
          <mxGeometry relative="1" as="geometry">
            <mxPoint x="464" y="22.5" as="sourcePoint" />
            <mxPoint x="264" y="22.5" as="targetPoint" />
            <Array as="points">
              <mxPoint x="400" y="23" />
              <mxPoint x="400" y="-12" />
            </Array>
          </mxGeometry>
        </mxCell>
        <mxCell id="a-3xQabaQIuShYP5bTJc-26" value="types" style="edgeLabel;resizable=0;html=1;align=left;verticalAlign=bottom;" parent="1" connectable="0" vertex="1">
          <mxGeometry x="575" y="36" as="geometry">
            <mxPoint x="4" y="-15" as="offset" />
          </mxGeometry>
        </mxCell>
        <mxCell id="a-3xQabaQIuShYP5bTJc-27" value="&lt;font style=&quot;font-size: 12px&quot;&gt;&lt;b&gt;ProcessType&lt;/b&gt;&lt;/font&gt;" style="swimlane;html=1;fontStyle=0;childLayout=stackLayout;horizontal=1;startSize=26;fillColor=#f5f5f5;horizontalStack=0;resizeParent=1;resizeLast=0;collapsible=1;marginBottom=0;swimlaneFillColor=#ffffff;rounded=0;shadow=0;comic=0;labelBackgroundColor=none;strokeWidth=1;fontFamily=Verdana;fontSize=10;align=center;strokeColor=#666666;fontColor=#333333;" parent="1" vertex="1">
          <mxGeometry x="-156" y="80" width="116" height="70" as="geometry" />
        </mxCell>
        <mxCell id="a-3xQabaQIuShYP5bTJc-68" value="- initialTaskType" style="text;html=1;strokeColor=none;fillColor=none;align=left;verticalAlign=top;spacingLeft=4;spacingRight=4;whiteSpace=wrap;overflow=hidden;rotatable=0;points=[[0,0.5],[1,0.5]];portConstraint=eastwest;fontSize=11;" parent="a-3xQabaQIuShYP5bTJc-27" vertex="1">
          <mxGeometry y="26" width="116" height="18" as="geometry" />
        </mxCell>
        <mxCell id="a-3xQabaQIuShYP5bTJc-69" value="&lt;div style=&quot;font-size: 11px&quot;&gt;- finalTaskTypes&lt;/div&gt;" style="text;html=1;strokeColor=none;fillColor=none;align=left;verticalAlign=top;spacingLeft=4;spacingRight=4;whiteSpace=wrap;overflow=hidden;rotatable=0;points=[[0,0.5],[1,0.5]];portConstraint=eastwest;fontSize=11;" parent="a-3xQabaQIuShYP5bTJc-27" vertex="1">
          <mxGeometry y="44" width="116" height="18" as="geometry" />
        </mxCell>
        <mxCell id="a-3xQabaQIuShYP5bTJc-29" value="" style="endArrow=block;endSize=12;endFill=0;html=1;rounded=0;exitX=0.5;exitY=0;exitDx=0;exitDy=0;" parent="1" source="a-3xQabaQIuShYP5bTJc-27" target="EUPt2hbITshMY0ZR5973-5" edge="1">
          <mxGeometry width="160" relative="1" as="geometry">
            <mxPoint x="-36" y="60" as="sourcePoint" />
            <mxPoint x="139" y="70" as="targetPoint" />
            <Array as="points">
              <mxPoint x="-98" y="30" />
              <mxPoint x="99" y="30" />
            </Array>
          </mxGeometry>
        </mxCell>
        <mxCell id="a-3xQabaQIuShYP5bTJc-30" value="&lt;font style=&quot;font-size: 12px&quot;&gt;&lt;b&gt;TaskType&lt;/b&gt;&lt;/font&gt;" style="swimlane;html=1;fontStyle=0;childLayout=stackLayout;horizontal=1;startSize=26;fillColor=#f5f5f5;horizontalStack=0;resizeParent=1;resizeLast=0;collapsible=1;marginBottom=0;swimlaneFillColor=#ffffff;rounded=0;shadow=0;comic=0;labelBackgroundColor=none;strokeWidth=1;fontFamily=Verdana;fontSize=10;align=center;strokeColor=#666666;fontColor=#333333;" parent="1" vertex="1">
          <mxGeometry x="-15.75" y="201" width="132.75" height="139" as="geometry" />
        </mxCell>
        <mxCell id="I2uBRycqw2sNGTHZgsEG-1" value="- isCritical : boolean" style="text;html=1;strokeColor=none;fillColor=none;align=left;verticalAlign=top;spacingLeft=4;spacingRight=4;whiteSpace=wrap;overflow=hidden;rotatable=0;points=[[0,0.5],[1,0.5]];portConstraint=eastwest;fontSize=11;" parent="a-3xQabaQIuShYP5bTJc-30" vertex="1">
          <mxGeometry y="26" width="132.75" height="18" as="geometry" />
        </mxCell>
        <mxCell id="a-3xQabaQIuShYP5bTJc-72" value="- allowedActors" style="text;html=1;strokeColor=none;fillColor=none;align=left;verticalAlign=top;spacingLeft=4;spacingRight=4;whiteSpace=wrap;overflow=hidden;rotatable=0;points=[[0,0.5],[1,0.5]];portConstraint=eastwest;fontSize=11;" parent="a-3xQabaQIuShYP5bTJc-30" vertex="1">
          <mxGeometry y="44" width="132.75" height="18" as="geometry" />
        </mxCell>
        <mxCell id="a-3xQabaQIuShYP5bTJc-71" value="- allowedActorTypes" style="text;html=1;strokeColor=none;fillColor=none;align=left;verticalAlign=top;spacingLeft=4;spacingRight=4;whiteSpace=wrap;overflow=hidden;rotatable=0;points=[[0,0.5],[1,0.5]];portConstraint=eastwest;fontSize=11;" parent="a-3xQabaQIuShYP5bTJc-30" vertex="1">
          <mxGeometry y="62" width="132.75" height="18" as="geometry" />
        </mxCell>
        <mxCell id="a-3xQabaQIuShYP5bTJc-73" value="- usedArtifactTypes" style="text;html=1;strokeColor=none;fillColor=none;align=left;verticalAlign=top;spacingLeft=4;spacingRight=4;whiteSpace=wrap;overflow=hidden;rotatable=0;points=[[0,0.5],[1,0.5]];portConstraint=eastwest;fontSize=11;" parent="a-3xQabaQIuShYP5bTJc-30" vertex="1">
          <mxGeometry y="80" width="132.75" height="18" as="geometry" />
        </mxCell>
        <mxCell id="a-3xQabaQIuShYP5bTJc-74" value="- producedArtifactTypes" style="text;html=1;strokeColor=none;fillColor=none;align=left;verticalAlign=top;spacingLeft=4;spacingRight=4;whiteSpace=wrap;overflow=hidden;rotatable=0;points=[[0,0.5],[1,0.5]];portConstraint=eastwest;fontSize=11;" parent="a-3xQabaQIuShYP5bTJc-30" vertex="1">
          <mxGeometry y="98" width="132.75" height="18" as="geometry" />
        </mxCell>
        <mxCell id="a-3xQabaQIuShYP5bTJc-31" value="" style="endArrow=block;endSize=12;endFill=0;html=1;rounded=0;" parent="1" source="a-3xQabaQIuShYP5bTJc-30" target="EUPt2hbITshMY0ZR5973-5" edge="1">
          <mxGeometry width="160" relative="1" as="geometry">
            <mxPoint x="93" y="212" as="sourcePoint" />
            <mxPoint x="228" y="70" as="targetPoint" />
            <Array as="points">
              <mxPoint x="51" y="30" />
              <mxPoint x="99" y="30" />
            </Array>
          </mxGeometry>
        </mxCell>
        <mxCell id="a-3xQabaQIuShYP5bTJc-37" value="&lt;font style=&quot;font-size: 12px&quot;&gt;&lt;b&gt;ActorType&lt;/b&gt;&lt;/font&gt;" style="swimlane;html=1;fontStyle=0;childLayout=stackLayout;horizontal=1;startSize=26;fillColor=#f5f5f5;horizontalStack=0;resizeParent=1;resizeLast=0;collapsible=1;marginBottom=0;swimlaneFillColor=#ffffff;rounded=0;shadow=0;comic=0;labelBackgroundColor=none;strokeWidth=1;fontFamily=Verdana;fontSize=10;align=center;strokeColor=#666666;fontColor=#333333;" parent="1" vertex="1">
          <mxGeometry x="176" y="392" width="126" height="52" as="geometry">
            <mxRectangle x="154" y="368" width="90" height="26" as="alternateBounds" />
          </mxGeometry>
        </mxCell>
        <mxCell id="a-3xQabaQIuShYP5bTJc-91" value="- parentActorTypes" style="text;html=1;strokeColor=none;fillColor=none;align=left;verticalAlign=top;spacingLeft=4;spacingRight=4;whiteSpace=wrap;overflow=hidden;rotatable=0;points=[[0,0.5],[1,0.5]];portConstraint=eastwest;fontSize=11;" parent="a-3xQabaQIuShYP5bTJc-37" vertex="1">
          <mxGeometry y="26" width="126" height="18" as="geometry" />
        </mxCell>
        <mxCell id="a-3xQabaQIuShYP5bTJc-38" value="&lt;div style=&quot;font-size: 12px&quot;&gt;&lt;font style=&quot;font-size: 12px&quot;&gt;&lt;b&gt;ArtifactType&lt;/b&gt;&lt;/font&gt;&lt;/div&gt;" style="swimlane;html=1;fontStyle=0;childLayout=stackLayout;horizontal=1;startSize=26;fillColor=#f5f5f5;horizontalStack=0;resizeParent=1;resizeLast=0;collapsible=1;marginBottom=0;swimlaneFillColor=#ffffff;rounded=0;shadow=0;comic=0;labelBackgroundColor=none;strokeWidth=1;fontFamily=Verdana;fontSize=10;align=center;strokeColor=#666666;fontColor=#333333;" parent="1" vertex="1">
          <mxGeometry x="282.75" y="525" width="110" height="50" as="geometry" />
        </mxCell>
        <mxCell id="a-3xQabaQIuShYP5bTJc-40" value="" style="endArrow=block;endSize=12;endFill=0;html=1;rounded=0;exitX=0.5;exitY=0;exitDx=0;exitDy=0;" parent="1" source="a-3xQabaQIuShYP5bTJc-37" target="EUPt2hbITshMY0ZR5973-5" edge="1">
          <mxGeometry width="160" relative="1" as="geometry">
            <mxPoint x="289" y="135" as="sourcePoint" />
            <mxPoint x="418" y="90" as="targetPoint" />
            <Array as="points">
              <mxPoint x="239" y="30" />
              <mxPoint x="99" y="30" />
            </Array>
          </mxGeometry>
        </mxCell>
        <mxCell id="a-3xQabaQIuShYP5bTJc-41" value="" style="endArrow=block;endSize=12;endFill=0;html=1;rounded=0;exitX=0.5;exitY=0;exitDx=0;exitDy=0;" parent="1" source="a-3xQabaQIuShYP5bTJc-38" target="EUPt2hbITshMY0ZR5973-5" edge="1">
          <mxGeometry width="160" relative="1" as="geometry">
            <mxPoint x="199" y="200" as="sourcePoint" />
            <mxPoint x="109" y="10" as="targetPoint" />
            <Array as="points">
              <mxPoint x="342" y="30" />
              <mxPoint x="99" y="30" />
            </Array>
          </mxGeometry>
        </mxCell>
        <mxCell id="a-3xQabaQIuShYP5bTJc-45" value="taskTypes" style="edgeLabel;resizable=0;html=1;align=left;verticalAlign=bottom;" parent="1" connectable="0" vertex="1">
          <mxGeometry x="-110" y="251" as="geometry">
            <mxPoint x="4" y="-15" as="offset" />
          </mxGeometry>
        </mxCell>
        <mxCell id="a-3xQabaQIuShYP5bTJc-46" value="&lt;font style=&quot;font-size: 12px&quot;&gt;&lt;b&gt;Process&lt;/b&gt;&lt;/font&gt;" style="swimlane;html=1;fontStyle=0;childLayout=stackLayout;horizontal=1;startSize=26;fillColor=#f5f5f5;horizontalStack=0;resizeParent=1;resizeLast=0;collapsible=1;marginBottom=0;swimlaneFillColor=#ffffff;rounded=0;shadow=0;comic=0;labelBackgroundColor=none;strokeWidth=1;fontFamily=Verdana;fontSize=10;align=center;strokeColor=#666666;fontColor=#333333;" parent="1" vertex="1">
          <mxGeometry x="366" y="81" width="110" height="60" as="geometry" />
        </mxCell>
        <mxCell id="a-3xQabaQIuShYP5bTJc-47" style="edgeStyle=none;rounded=0;orthogonalLoop=1;jettySize=auto;html=1;endArrow=blockThin;endFill=1;endSize=8;exitX=0;exitY=0.25;exitDx=0;exitDy=0;entryX=1;entryY=0.25;entryDx=0;entryDy=0;" parent="1" source="a-3xQabaQIuShYP5bTJc-46" target="a-3xQabaQIuShYP5bTJc-27" edge="1">
          <mxGeometry relative="1" as="geometry">
            <mxPoint x="420" y="115" as="sourcePoint" />
            <mxPoint x="-10" y="80" as="targetPoint" />
          </mxGeometry>
        </mxCell>
        <mxCell id="a-3xQabaQIuShYP5bTJc-48" value="/type" style="edgeLabel;resizable=0;html=1;align=left;verticalAlign=bottom;" parent="1" connectable="0" vertex="1">
          <mxGeometry x="302" y="95" as="geometry" />
        </mxCell>
        <mxCell id="a-3xQabaQIuShYP5bTJc-49" value="&lt;font style=&quot;font-size: 12px&quot;&gt;&lt;b&gt;Task&lt;/b&gt;&lt;/font&gt;" style="swimlane;html=1;fontStyle=0;childLayout=stackLayout;horizontal=1;startSize=26;fillColor=#f5f5f5;horizontalStack=0;resizeParent=1;resizeLast=0;collapsible=1;marginBottom=0;swimlaneFillColor=#ffffff;rounded=0;shadow=0;comic=0;labelBackgroundColor=none;strokeWidth=1;fontFamily=Verdana;fontSize=10;align=center;strokeColor=#666666;fontColor=#333333;" parent="1" vertex="1">
          <mxGeometry x="445" y="201" width="115" height="139" as="geometry" />
        </mxCell>
        <mxCell id="a-3xQabaQIuShYP5bTJc-97" value="- beginDate : Date" style="text;html=1;strokeColor=none;fillColor=none;align=left;verticalAlign=top;spacingLeft=4;spacingRight=4;whiteSpace=wrap;overflow=hidden;rotatable=0;points=[[0,0.5],[1,0.5]];portConstraint=eastwest;fontSize=11;" parent="a-3xQabaQIuShYP5bTJc-49" vertex="1">
          <mxGeometry y="26" width="115" height="18" as="geometry" />
        </mxCell>
        <mxCell id="a-3xQabaQIuShYP5bTJc-107" value="- endDate : Date" style="text;html=1;strokeColor=none;fillColor=none;align=left;verticalAlign=top;spacingLeft=4;spacingRight=4;whiteSpace=wrap;overflow=hidden;rotatable=0;points=[[0,0.5],[1,0.5]];portConstraint=eastwest;fontSize=11;" parent="a-3xQabaQIuShYP5bTJc-49" vertex="1">
          <mxGeometry y="44" width="115" height="18" as="geometry" />
        </mxCell>
        <mxCell id="a-3xQabaQIuShYP5bTJc-101" value="- endDate : Date" style="text;html=1;strokeColor=none;fillColor=none;align=left;verticalAlign=top;spacingLeft=4;spacingRight=4;whiteSpace=wrap;overflow=hidden;rotatable=0;points=[[0,0.5],[1,0.5]];portConstraint=eastwest;fontSize=11;" parent="a-3xQabaQIuShYP5bTJc-49" vertex="1">
          <mxGeometry y="62" width="115" height="18" as="geometry" />
        </mxCell>
        <mxCell id="a-3xQabaQIuShYP5bTJc-99" value="- usedArtifacts" style="text;html=1;strokeColor=none;fillColor=none;align=left;verticalAlign=top;spacingLeft=4;spacingRight=4;whiteSpace=wrap;overflow=hidden;rotatable=0;points=[[0,0.5],[1,0.5]];portConstraint=eastwest;fontSize=11;" parent="a-3xQabaQIuShYP5bTJc-49" vertex="1">
          <mxGeometry y="80" width="115" height="18" as="geometry" />
        </mxCell>
        <mxCell id="a-3xQabaQIuShYP5bTJc-98" value="- producedArtifacts" style="text;html=1;strokeColor=none;fillColor=none;align=left;verticalAlign=top;spacingLeft=4;spacingRight=4;whiteSpace=wrap;overflow=hidden;rotatable=0;points=[[0,0.5],[1,0.5]];portConstraint=eastwest;fontSize=11;" parent="a-3xQabaQIuShYP5bTJc-49" vertex="1">
          <mxGeometry y="98" width="115" height="18" as="geometry" />
        </mxCell>
        <mxCell id="a-3xQabaQIuShYP5bTJc-100" value="- performingActors" style="text;html=1;strokeColor=none;fillColor=none;align=left;verticalAlign=top;spacingLeft=4;spacingRight=4;whiteSpace=wrap;overflow=hidden;rotatable=0;points=[[0,0.5],[1,0.5]];portConstraint=eastwest;fontSize=11;" parent="a-3xQabaQIuShYP5bTJc-49" vertex="1">
          <mxGeometry y="116" width="115" height="18" as="geometry" />
        </mxCell>
        <mxCell id="a-3xQabaQIuShYP5bTJc-50" style="edgeStyle=none;rounded=0;orthogonalLoop=1;jettySize=auto;html=1;endArrow=none;endFill=0;endSize=10;startArrow=diamond;startFill=1;startSize=10;entryX=0.25;entryY=0;entryDx=0;entryDy=0;" parent="1" target="a-3xQabaQIuShYP5bTJc-49" edge="1">
          <mxGeometry relative="1" as="geometry">
            <mxPoint x="416" y="141" as="sourcePoint" />
            <mxPoint x="456" y="173" as="targetPoint" />
            <Array as="points">
              <mxPoint x="416" y="180" />
              <mxPoint x="474" y="180" />
            </Array>
          </mxGeometry>
        </mxCell>
        <mxCell id="a-3xQabaQIuShYP5bTJc-52" value="tasks" style="edgeLabel;resizable=0;html=1;align=left;verticalAlign=bottom;" parent="1" connectable="0" vertex="1">
          <mxGeometry x="428" y="193" as="geometry">
            <mxPoint x="4" y="-15" as="offset" />
          </mxGeometry>
        </mxCell>
        <mxCell id="a-3xQabaQIuShYP5bTJc-54" style="edgeStyle=none;rounded=0;orthogonalLoop=1;jettySize=auto;html=1;exitX=0;exitY=0.108;exitDx=0;exitDy=0;endArrow=blockThin;endFill=1;endSize=8;entryX=1.002;entryY=0.108;entryDx=0;entryDy=0;entryPerimeter=0;exitPerimeter=0;" parent="1" source="a-3xQabaQIuShYP5bTJc-49" target="a-3xQabaQIuShYP5bTJc-30" edge="1">
          <mxGeometry relative="1" as="geometry">
            <mxPoint x="393" y="266.5" as="sourcePoint" />
            <mxPoint x="220" y="214" as="targetPoint" />
          </mxGeometry>
        </mxCell>
        <mxCell id="a-3xQabaQIuShYP5bTJc-55" value="/type" style="edgeLabel;resizable=0;html=1;align=left;verticalAlign=bottom;" parent="1" connectable="0" vertex="1">
          <mxGeometry x="378" y="215" as="geometry" />
        </mxCell>
        <mxCell id="a-3xQabaQIuShYP5bTJc-56" value="&lt;font style=&quot;font-size: 12px&quot;&gt;&lt;b&gt;Actor&lt;/b&gt;&lt;/font&gt;" style="swimlane;html=1;fontStyle=0;childLayout=stackLayout;horizontal=1;startSize=26;fillColor=#f5f5f5;horizontalStack=0;resizeParent=1;resizeLast=0;collapsible=1;marginBottom=0;swimlaneFillColor=#ffffff;rounded=0;shadow=0;comic=0;labelBackgroundColor=none;strokeWidth=1;fontFamily=Verdana;fontSize=10;align=center;strokeColor=#666666;fontColor=#333333;" parent="1" vertex="1">
          <mxGeometry x="556" y="393" width="110" height="57" as="geometry" />
        </mxCell>
        <mxCell id="I2uBRycqw2sNGTHZgsEG-2" value="- isSenior : boolean" style="text;html=1;strokeColor=none;fillColor=none;align=left;verticalAlign=top;spacingLeft=4;spacingRight=4;whiteSpace=wrap;overflow=hidden;rotatable=0;points=[[0,0.5],[1,0.5]];portConstraint=eastwest;fontSize=11;" parent="a-3xQabaQIuShYP5bTJc-56" vertex="1">
          <mxGeometry y="26" width="110" height="18" as="geometry" />
        </mxCell>
        <mxCell id="a-3xQabaQIuShYP5bTJc-57" style="edgeStyle=none;rounded=0;orthogonalLoop=1;jettySize=auto;html=1;exitX=0;exitY=0.25;exitDx=0;exitDy=0;endArrow=blockThin;endFill=1;endSize=8;entryX=1;entryY=0.25;entryDx=0;entryDy=0;" parent="1" source="a-3xQabaQIuShYP5bTJc-56" target="a-3xQabaQIuShYP5bTJc-37" edge="1">
          <mxGeometry relative="1" as="geometry">
            <mxPoint x="463" y="421.5" as="sourcePoint" />
            <mxPoint x="300" y="418" as="targetPoint" />
          </mxGeometry>
        </mxCell>
        <mxCell id="a-3xQabaQIuShYP5bTJc-58" value="/types" style="edgeLabel;resizable=0;html=1;align=left;verticalAlign=bottom;" parent="1" connectable="0" vertex="1">
          <mxGeometry x="474" y="405" as="geometry" />
        </mxCell>
        <mxCell id="a-3xQabaQIuShYP5bTJc-59" value="&lt;font style=&quot;font-size: 12px&quot;&gt;&lt;b&gt;Artifact&lt;/b&gt;&lt;/font&gt;" style="swimlane;html=1;fontStyle=0;childLayout=stackLayout;horizontal=1;startSize=26;fillColor=#f5f5f5;horizontalStack=0;resizeParent=1;resizeLast=0;collapsible=1;marginBottom=0;swimlaneFillColor=#ffffff;rounded=0;shadow=0;comic=0;labelBackgroundColor=none;strokeWidth=1;fontFamily=Verdana;fontSize=10;align=center;strokeColor=#666666;fontColor=#333333;" parent="1" vertex="1">
          <mxGeometry x="622.25" y="525" width="115" height="50" as="geometry" />
        </mxCell>
        <mxCell id="a-3xQabaQIuShYP5bTJc-60" style="edgeStyle=none;rounded=0;orthogonalLoop=1;jettySize=auto;html=1;exitX=0;exitY=0.25;exitDx=0;exitDy=0;entryX=1;entryY=0.25;entryDx=0;entryDy=0;endArrow=blockThin;endFill=1;endSize=8;" parent="1" source="a-3xQabaQIuShYP5bTJc-59" target="a-3xQabaQIuShYP5bTJc-38" edge="1">
          <mxGeometry relative="1" as="geometry">
            <mxPoint x="529.25" y="501.5" as="sourcePoint" />
            <mxPoint x="290.25" y="497.5" as="targetPoint" />
          </mxGeometry>
        </mxCell>
        <mxCell id="a-3xQabaQIuShYP5bTJc-61" value="/types" style="edgeLabel;resizable=0;html=1;align=left;verticalAlign=bottom;" parent="1" connectable="0" vertex="1">
          <mxGeometry x="532.25" y="535" as="geometry" />
        </mxCell>
        <mxCell id="a-3xQabaQIuShYP5bTJc-64" value="" style="endArrow=block;endSize=12;endFill=0;html=1;rounded=0;exitX=0.5;exitY=0;exitDx=0;exitDy=0;" parent="1" source="a-3xQabaQIuShYP5bTJc-46" target="a-3xQabaQIuShYP5bTJc-1" edge="1">
          <mxGeometry width="160" relative="1" as="geometry">
            <mxPoint x="521" y="199" as="sourcePoint" />
            <mxPoint x="516" y="1" as="targetPoint" />
            <Array as="points">
              <mxPoint x="421" y="51" />
              <mxPoint x="503" y="51" />
            </Array>
          </mxGeometry>
        </mxCell>
        <mxCell id="a-3xQabaQIuShYP5bTJc-65" value="" style="endArrow=block;endSize=12;endFill=0;html=1;rounded=0;" parent="1" source="a-3xQabaQIuShYP5bTJc-49" target="a-3xQabaQIuShYP5bTJc-1" edge="1">
          <mxGeometry width="160" relative="1" as="geometry">
            <mxPoint x="516" y="142" as="sourcePoint" />
            <mxPoint x="606.328947368421" y="61" as="targetPoint" />
          </mxGeometry>
        </mxCell>
        <mxCell id="a-3xQabaQIuShYP5bTJc-66" value="" style="endArrow=block;endSize=12;endFill=0;html=1;rounded=0;" parent="1" source="a-3xQabaQIuShYP5bTJc-56" target="a-3xQabaQIuShYP5bTJc-2" edge="1">
          <mxGeometry width="160" relative="1" as="geometry">
            <mxPoint x="522.7925311203319" y="201" as="sourcePoint" />
            <mxPoint x="521.2074688796681" y="10" as="targetPoint" />
            <Array as="points">
              <mxPoint x="611" y="171" />
              <mxPoint x="681" y="171" />
            </Array>
          </mxGeometry>
        </mxCell>
        <mxCell id="a-3xQabaQIuShYP5bTJc-67" value="" style="endArrow=block;endSize=12;endFill=0;html=1;rounded=0;" parent="1" source="a-3xQabaQIuShYP5bTJc-59" target="a-3xQabaQIuShYP5bTJc-2" edge="1">
          <mxGeometry width="160" relative="1" as="geometry">
            <mxPoint x="532.7925311203319" y="211" as="sourcePoint" />
            <mxPoint x="531.2074688796681" y="20" as="targetPoint" />
          </mxGeometry>
        </mxCell>
        <mxCell id="a-3xQabaQIuShYP5bTJc-87" style="edgeStyle=none;rounded=0;orthogonalLoop=1;jettySize=auto;html=1;exitX=1;exitY=0.5;exitDx=0;exitDy=0;endArrow=blockThin;endFill=1;endSize=8;" parent="1" edge="1">
          <mxGeometry relative="1" as="geometry">
            <mxPoint x="117" y="254" as="sourcePoint" />
            <mxPoint x="656" y="392" as="targetPoint" />
            <Array as="points">
              <mxPoint x="380" y="254" />
              <mxPoint x="380" y="352" />
              <mxPoint x="656" y="352" />
            </Array>
          </mxGeometry>
        </mxCell>
        <mxCell id="a-3xQabaQIuShYP5bTJc-88" style="edgeStyle=none;rounded=0;orthogonalLoop=1;jettySize=auto;html=1;exitX=1;exitY=0.5;exitDx=0;exitDy=0;endArrow=blockThin;endFill=1;endSize=8;entryX=0.75;entryY=0;entryDx=0;entryDy=0;" parent="1" source="a-3xQabaQIuShYP5bTJc-68" target="a-3xQabaQIuShYP5bTJc-30" edge="1">
          <mxGeometry relative="1" as="geometry">
            <mxPoint x="231.5" y="245" as="sourcePoint" />
            <mxPoint x="638" y="395.62080173347795" as="targetPoint" />
            <Array as="points">
              <mxPoint x="84" y="115" />
            </Array>
          </mxGeometry>
        </mxCell>
        <mxCell id="a-3xQabaQIuShYP5bTJc-89" style="edgeStyle=none;rounded=0;orthogonalLoop=1;jettySize=auto;html=1;exitX=1;exitY=0.5;exitDx=0;exitDy=0;endArrow=blockThin;endFill=1;endSize=8;entryX=0.25;entryY=0;entryDx=0;entryDy=0;" parent="1" source="a-3xQabaQIuShYP5bTJc-69" target="a-3xQabaQIuShYP5bTJc-30" edge="1">
          <mxGeometry relative="1" as="geometry">
            <mxPoint x="24" y="125" as="sourcePoint" />
            <mxPoint x="212.8800000000001" y="208.96000000000004" as="targetPoint" />
            <Array as="points">
              <mxPoint x="17" y="133" />
            </Array>
          </mxGeometry>
        </mxCell>
        <mxCell id="a-3xQabaQIuShYP5bTJc-35" style="edgeStyle=none;rounded=0;orthogonalLoop=1;jettySize=auto;html=1;endArrow=none;endFill=0;endSize=10;startArrow=diamond;startFill=1;startSize=10;entryX=0.004;entryY=0.123;entryDx=0;entryDy=0;entryPerimeter=0;exitX=0.5;exitY=1;exitDx=0;exitDy=0;" parent="1" source="a-3xQabaQIuShYP5bTJc-27" target="a-3xQabaQIuShYP5bTJc-30" edge="1">
          <mxGeometry relative="1" as="geometry">
            <mxPoint x="-87" y="170" as="sourcePoint" />
            <mxPoint x="-27" y="239.53" as="targetPoint" />
            <Array as="points">
              <mxPoint x="-98" y="218" />
            </Array>
          </mxGeometry>
        </mxCell>
        <mxCell id="a-3xQabaQIuShYP5bTJc-93" style="edgeStyle=none;rounded=0;orthogonalLoop=1;jettySize=auto;html=1;exitX=1;exitY=0.5;exitDx=0;exitDy=0;endArrow=blockThin;endFill=1;endSize=8;entryX=0.25;entryY=0;entryDx=0;entryDy=0;" parent="1" source="a-3xQabaQIuShYP5bTJc-71" target="a-3xQabaQIuShYP5bTJc-37" edge="1">
          <mxGeometry relative="1" as="geometry">
            <mxPoint x="254" y="282" as="sourcePoint" />
            <mxPoint x="428.875" y="368" as="targetPoint" />
            <Array as="points">
              <mxPoint x="208" y="290" />
            </Array>
          </mxGeometry>
        </mxCell>
        <mxCell id="a-3xQabaQIuShYP5bTJc-94" style="edgeStyle=none;rounded=0;orthogonalLoop=1;jettySize=auto;html=1;exitX=1;exitY=0.5;exitDx=0;exitDy=0;endArrow=blockThin;endFill=1;endSize=8;" parent="1" source="a-3xQabaQIuShYP5bTJc-72" edge="1">
          <mxGeometry relative="1" as="geometry">
            <mxPoint x="117" y="255" as="sourcePoint" />
            <mxPoint x="642" y="392" as="targetPoint" />
            <Array as="points">
              <mxPoint x="360" y="272" />
              <mxPoint x="360" y="370" />
              <mxPoint x="642" y="370" />
            </Array>
          </mxGeometry>
        </mxCell>
        <mxCell id="a-3xQabaQIuShYP5bTJc-95" style="edgeStyle=none;rounded=0;orthogonalLoop=1;jettySize=auto;html=1;exitX=1;exitY=0.5;exitDx=0;exitDy=0;endArrow=blockThin;endFill=1;endSize=8;entryX=0.25;entryY=0;entryDx=0;entryDy=0;" parent="1" source="a-3xQabaQIuShYP5bTJc-74" target="a-3xQabaQIuShYP5bTJc-38" edge="1">
          <mxGeometry relative="1" as="geometry">
            <mxPoint x="470.13" y="540" as="sourcePoint" />
            <mxPoint x="484.88" y="636" as="targetPoint" />
            <Array as="points">
              <mxPoint x="140" y="326" />
              <mxPoint x="140" y="490" />
              <mxPoint x="310" y="490" />
            </Array>
          </mxGeometry>
        </mxCell>
        <mxCell id="a-3xQabaQIuShYP5bTJc-96" style="edgeStyle=none;rounded=0;orthogonalLoop=1;jettySize=auto;html=1;exitX=1;exitY=0.5;exitDx=0;exitDy=0;endArrow=blockThin;endFill=1;endSize=8;entryX=0.377;entryY=0;entryDx=0;entryDy=0;entryPerimeter=0;" parent="1" source="a-3xQabaQIuShYP5bTJc-73" target="a-3xQabaQIuShYP5bTJc-38" edge="1">
          <mxGeometry relative="1" as="geometry">
            <mxPoint x="480.1300000000001" y="550" as="sourcePoint" />
            <mxPoint x="494.8800000000001" y="646" as="targetPoint" />
            <Array as="points">
              <mxPoint x="160" y="308" />
              <mxPoint x="160" y="470" />
              <mxPoint x="324" y="470" />
            </Array>
          </mxGeometry>
        </mxCell>
        <mxCell id="a-3xQabaQIuShYP5bTJc-102" style="edgeStyle=none;rounded=0;orthogonalLoop=1;jettySize=auto;html=1;endArrow=blockThin;endFill=1;endSize=8;exitX=1;exitY=0.806;exitDx=0;exitDy=0;exitPerimeter=0;" parent="1" source="a-3xQabaQIuShYP5bTJc-100" edge="1">
          <mxGeometry relative="1" as="geometry">
            <mxPoint x="578" y="340" as="sourcePoint" />
            <mxPoint x="600" y="392" as="targetPoint" />
            <Array as="points">
              <mxPoint x="600" y="331" />
            </Array>
          </mxGeometry>
        </mxCell>
        <mxCell id="a-3xQabaQIuShYP5bTJc-103" style="edgeStyle=none;rounded=0;orthogonalLoop=1;jettySize=auto;html=1;endArrow=blockThin;endFill=1;endSize=8;entryX=0.898;entryY=0;entryDx=0;entryDy=0;entryPerimeter=0;exitX=1.004;exitY=0.75;exitDx=0;exitDy=0;exitPerimeter=0;" parent="1" source="a-3xQabaQIuShYP5bTJc-99" target="a-3xQabaQIuShYP5bTJc-59" edge="1">
          <mxGeometry relative="1" as="geometry">
            <mxPoint x="578" y="295" as="sourcePoint" />
            <mxPoint x="725" y="520" as="targetPoint" />
            <Array as="points">
              <mxPoint x="728" y="295" />
            </Array>
          </mxGeometry>
        </mxCell>
        <mxCell id="a-3xQabaQIuShYP5bTJc-104" style="edgeStyle=none;rounded=0;orthogonalLoop=1;jettySize=auto;html=1;exitX=1;exitY=0.5;exitDx=0;exitDy=0;endArrow=blockThin;endFill=1;endSize=8;entryX=0.75;entryY=0;entryDx=0;entryDy=0;" parent="1" target="a-3xQabaQIuShYP5bTJc-59" edge="1">
          <mxGeometry relative="1" as="geometry">
            <mxPoint x="560" y="313" as="sourcePoint" />
            <mxPoint x="709" y="515" as="targetPoint" />
            <Array as="points">
              <mxPoint x="712" y="313" />
            </Array>
          </mxGeometry>
        </mxCell>
        <mxCell id="a-3xQabaQIuShYP5bTJc-90" style="edgeStyle=none;rounded=0;orthogonalLoop=1;jettySize=auto;html=1;endArrow=blockThin;endFill=1;endSize=8;exitX=1;exitY=0.75;exitDx=0;exitDy=0;entryX=0.75;entryY=0;entryDx=0;entryDy=0;" parent="1" source="a-3xQabaQIuShYP5bTJc-37" target="a-3xQabaQIuShYP5bTJc-37" edge="1">
          <mxGeometry relative="1" as="geometry">
            <mxPoint x="132" y="404" as="sourcePoint" />
            <mxPoint x="239" y="465" as="targetPoint" />
            <Array as="points">
              <mxPoint x="320" y="431" />
              <mxPoint x="320" y="370" />
              <mxPoint x="271" y="370" />
            </Array>
          </mxGeometry>
        </mxCell>
        <mxCell id="a-3xQabaQIuShYP5bTJc-111" value="&lt;font style=&quot;font-size: 14px&quot;&gt;*&lt;/font&gt;" style="edgeLabel;resizable=0;html=1;align=left;verticalAlign=bottom;" parent="1" connectable="0" vertex="1">
          <mxGeometry x="250" y="405" width="126" as="geometry">
            <mxPoint x="4" y="-15" as="offset" />
          </mxGeometry>
        </mxCell>
        <mxCell id="yhg7PZUZ458GV-zq5LN9-1" value="&lt;b&gt;&lt;font style=&quot;font-size: 12px&quot;&gt;Acme Metamodel&lt;/font&gt;&lt;/b&gt;" style="shape=umlFrame;whiteSpace=wrap;html=1;rounded=0;shadow=0;comic=0;labelBackgroundColor=none;strokeWidth=1;fontFamily=Verdana;fontSize=10;align=center;width=150;height=30;" vertex="1" parent="1">
          <mxGeometry x="-190" y="730" width="1080" height="440" as="geometry" />
        </mxCell>
        <mxCell id="yhg7PZUZ458GV-zq5LN9-2" value="" style="endArrow=block;endSize=12;endFill=0;html=1;rounded=0;" edge="1" parent="1" source="yhg7PZUZ458GV-zq5LN9-1" target="17acba5748e5396b-1">
          <mxGeometry width="160" relative="1" as="geometry">
            <mxPoint x="-126.68627450980398" y="486" as="sourcePoint" />
            <mxPoint x="254" y="680" as="targetPoint" />
          </mxGeometry>
        </mxCell>
        <mxCell id="yhg7PZUZ458GV-zq5LN9-3" value="&lt;b&gt;&lt;font style=&quot;font-size: 12px&quot;&gt;Developer&lt;/font&gt;&lt;/b&gt;" style="swimlane;html=1;fontStyle=0;childLayout=stackLayout;horizontal=1;startSize=26;fillColor=#f5f5f5;horizontalStack=0;resizeParent=1;resizeLast=0;collapsible=1;marginBottom=0;swimlaneFillColor=#ffffff;rounded=0;shadow=0;comic=0;labelBackgroundColor=none;strokeWidth=1;fontFamily=Verdana;fontSize=10;align=center;strokeColor=#666666;fontColor=#333333;" vertex="1" parent="1">
          <mxGeometry x="190" y="900" width="126" height="52" as="geometry">
            <mxRectangle x="154" y="368" width="90" height="26" as="alternateBounds" />
          </mxGeometry>
        </mxCell>
        <mxCell id="yhg7PZUZ458GV-zq5LN9-5" value="&lt;b&gt;&lt;font style=&quot;font-size: 12px&quot;&gt;SEActifactType&lt;/font&gt;&lt;/b&gt;" style="swimlane;html=1;fontStyle=0;childLayout=stackLayout;horizontal=1;startSize=26;fillColor=#f5f5f5;horizontalStack=0;resizeParent=1;resizeLast=0;collapsible=1;marginBottom=0;swimlaneFillColor=#ffffff;rounded=0;shadow=0;comic=0;labelBackgroundColor=none;strokeWidth=1;fontFamily=Verdana;fontSize=10;align=center;strokeColor=#666666;fontColor=#333333;" vertex="1" parent="1">
          <mxGeometry x="378" y="810" width="126" height="50" as="geometry">
            <mxRectangle x="154" y="368" width="90" height="26" as="alternateBounds" />
          </mxGeometry>
        </mxCell>
        <mxCell id="yhg7PZUZ458GV-zq5LN9-7" value="&lt;b&gt;&lt;font style=&quot;font-size: 12px&quot;&gt;CodeActifactType&lt;/font&gt;&lt;/b&gt;" style="swimlane;html=1;fontStyle=0;childLayout=stackLayout;horizontal=1;startSize=26;fillColor=#f5f5f5;horizontalStack=0;resizeParent=1;resizeLast=0;collapsible=1;marginBottom=0;swimlaneFillColor=#ffffff;rounded=0;shadow=0;comic=0;labelBackgroundColor=none;strokeWidth=1;fontFamily=Verdana;fontSize=10;align=center;strokeColor=#666666;fontColor=#333333;" vertex="1" parent="1">
          <mxGeometry x="378" y="900" width="126" height="50" as="geometry">
            <mxRectangle x="154" y="368" width="90" height="26" as="alternateBounds" />
          </mxGeometry>
        </mxCell>
        <mxCell id="yhg7PZUZ458GV-zq5LN9-8" value="&lt;b&gt;&lt;font style=&quot;font-size: 12px&quot;&gt;SETaskType&lt;/font&gt;&lt;/b&gt;" style="swimlane;html=1;fontStyle=0;childLayout=stackLayout;horizontal=1;startSize=26;fillColor=#f5f5f5;horizontalStack=0;resizeParent=1;resizeLast=0;collapsible=1;marginBottom=0;swimlaneFillColor=#ffffff;rounded=0;shadow=0;comic=0;labelBackgroundColor=none;strokeWidth=1;fontFamily=Verdana;fontSize=10;align=center;strokeColor=#666666;fontColor=#333333;" vertex="1" parent="1">
          <mxGeometry y="810" width="126" height="50" as="geometry">
            <mxRectangle x="154" y="368" width="90" height="26" as="alternateBounds" />
          </mxGeometry>
        </mxCell>
        <mxCell id="yhg7PZUZ458GV-zq5LN9-9" value="&lt;b&gt;&lt;font style=&quot;font-size: 12px&quot;&gt;CodingTaskType&lt;/font&gt;&lt;/b&gt;" style="swimlane;html=1;fontStyle=0;childLayout=stackLayout;horizontal=1;startSize=26;fillColor=#f5f5f5;horizontalStack=0;resizeParent=1;resizeLast=0;collapsible=1;marginBottom=0;swimlaneFillColor=#ffffff;rounded=0;shadow=0;comic=0;labelBackgroundColor=none;strokeWidth=1;fontFamily=Verdana;fontSize=10;align=center;strokeColor=#666666;fontColor=#333333;" vertex="1" parent="1">
          <mxGeometry y="900" width="126" height="50" as="geometry">
            <mxRectangle x="154" y="368" width="90" height="26" as="alternateBounds" />
          </mxGeometry>
        </mxCell>
        <mxCell id="yhg7PZUZ458GV-zq5LN9-10" value="&lt;b&gt;&lt;font style=&quot;font-size: 12px&quot;&gt;Coding&lt;/font&gt;&lt;/b&gt;" style="swimlane;html=1;fontStyle=0;childLayout=stackLayout;horizontal=1;startSize=26;fillColor=#f5f5f5;horizontalStack=0;resizeParent=1;resizeLast=0;collapsible=1;marginBottom=0;swimlaneFillColor=#ffffff;rounded=0;shadow=0;comic=0;labelBackgroundColor=none;strokeWidth=1;fontFamily=Verdana;fontSize=10;align=center;strokeColor=#666666;fontColor=#333333;" vertex="1" parent="1">
          <mxGeometry x="568" y="900" width="126" height="52" as="geometry">
            <mxRectangle x="154" y="368" width="90" height="26" as="alternateBounds" />
          </mxGeometry>
        </mxCell>
        <mxCell id="yhg7PZUZ458GV-zq5LN9-11" value="&lt;b&gt;&lt;font style=&quot;font-size: 12px&quot;&gt;SEActifactType&lt;/font&gt;&lt;/b&gt;" style="swimlane;html=1;fontStyle=0;childLayout=stackLayout;horizontal=1;startSize=26;fillColor=#f5f5f5;horizontalStack=0;resizeParent=1;resizeLast=0;collapsible=1;marginBottom=0;swimlaneFillColor=#ffffff;rounded=0;shadow=0;comic=0;labelBackgroundColor=none;strokeWidth=1;fontFamily=Verdana;fontSize=10;align=center;strokeColor=#666666;fontColor=#333333;" vertex="1" parent="1">
          <mxGeometry x="760" y="810" width="126" height="50" as="geometry">
            <mxRectangle x="154" y="368" width="90" height="26" as="alternateBounds" />
          </mxGeometry>
        </mxCell>
        <mxCell id="yhg7PZUZ458GV-zq5LN9-12" value="&lt;b&gt;&lt;font style=&quot;font-size: 12px&quot;&gt;Code&lt;/font&gt;&lt;/b&gt;" style="swimlane;html=1;fontStyle=0;childLayout=stackLayout;horizontal=1;startSize=26;fillColor=#f5f5f5;horizontalStack=0;resizeParent=1;resizeLast=0;collapsible=1;marginBottom=0;swimlaneFillColor=#ffffff;rounded=0;shadow=0;comic=0;labelBackgroundColor=none;strokeWidth=1;fontFamily=Verdana;fontSize=10;align=center;strokeColor=#666666;fontColor=#333333;" vertex="1" parent="1">
          <mxGeometry x="760" y="898" width="126" height="52" as="geometry">
            <mxRectangle x="154" y="368" width="90" height="26" as="alternateBounds" />
          </mxGeometry>
        </mxCell>
      </root>
    </mxGraphModel>
  </diagram>
</mxfile>
